<svg width="48" height="48" viewBox="0 0 48 48" fill="none" xmlns="http://www.w3.org/2000/svg">
<g id="bolt-solid (2) 2" clip-path="url(#clip0_11_193)">
<path id="Vector" d="M37.4359 4.18125C38.068 2.89688 37.5966 1.39688 36.3002 0.571875C35.0038 -0.253125 33.2359 -0.178125 32.0252 0.740625L4.59661 21.7406C3.52519 22.5656 3.13947 23.8875 3.64304 25.05C4.14661 26.2125 5.43233 27 6.85733 27H18.8038L10.5645 43.8187C9.93233 45.1031 10.4038 46.6031 11.7002 47.4281C12.9966 48.2531 14.7645 48.1781 15.9752 47.2594L43.4038 26.2594C44.4752 25.4344 44.8609 24.1125 44.3573 22.95C43.8538 21.7875 42.5788 21.0094 41.143 21.0094H29.1966L37.4359 4.18125Z" fill="#FFD43B"/>
</g>
<defs>
<clipPath id="clip0_11_193">
<rect width="48" height="48" fill="white"/>
</clipPath>
</defs>
</svg>
