<svg width="27" height="26" viewBox="0 0 27 26" fill="none" xmlns="http://www.w3.org/2000/svg">
<g id="eye-regular 1" clip-path="url(#clip0_5_665)">
<path id="Vector" d="M13.5 4.0625C10.4438 4.0625 7.9313 5.56562 6.00474 7.50039C4.20005 9.31836 2.95317 11.4766 2.31567 13C2.95317 14.5234 4.20005 16.6816 6.00005 18.4996C7.9313 20.4344 10.4438 21.9375 13.5 21.9375C16.5563 21.9375 19.0688 20.4344 20.9954 18.4996C22.8 16.6816 24.0469 14.5234 24.6844 13C24.0469 11.4766 22.8 9.31836 21 7.50039C19.0688 5.56562 16.5563 4.0625 13.5 4.0625ZM4.47192 5.71797C6.67974 3.49375 9.71255 1.625 13.5 1.625C17.2875 1.625 20.3204 3.49375 22.5282 5.71797C24.7219 7.92695 26.1891 10.5625 26.8875 12.3754C27.0422 12.7766 27.0422 13.2234 26.8875 13.6246C26.1891 15.4375 24.7219 18.0781 22.5282 20.282C20.3204 22.5062 17.2875 24.375 13.5 24.375C9.71255 24.375 6.67974 22.5062 4.47192 20.282C2.27817 18.0781 0.810986 15.4375 0.117236 13.6246C-0.0374512 13.2234 -0.0374512 12.7766 0.117236 12.3754C0.810986 10.5625 2.27817 7.92188 4.47192 5.71797ZM13.5 17.0625C15.5719 17.0625 17.25 15.2445 17.25 13C17.25 10.7555 15.5719 8.9375 13.5 8.9375C13.4672 8.9375 13.4391 8.9375 13.4063 8.9375C13.4672 9.19648 13.5 9.4707 13.5 9.75C13.5 11.5426 12.1547 13 10.5 13C10.2422 13 9.98911 12.9645 9.75005 12.8984C9.75005 12.934 9.75005 12.9645 9.75005 13C9.75005 15.2445 11.4282 17.0625 13.5 17.0625ZM13.5 6.5C15.0913 6.5 16.6175 7.18482 17.7427 8.40381C18.8679 9.62279 19.5 11.2761 19.5 13C19.5 14.7239 18.8679 16.3772 17.7427 17.5962C16.6175 18.8152 15.0913 19.5 13.5 19.5C11.9088 19.5 10.3826 18.8152 9.25741 17.5962C8.13219 16.3772 7.50005 14.7239 7.50005 13C7.50005 11.2761 8.13219 9.62279 9.25741 8.40381C10.3826 7.18482 11.9088 6.5 13.5 6.5Z" fill="#49326F"/>
</g>
<defs>
<clipPath id="clip0_5_665">
<rect width="27" height="26" fill="white"/>
</clipPath>
</defs>
</svg>
